# Blender v2.74 (sub 0) OBJ File: ''
# www.blender.org
mtllib bullet.mtl
o Circle
v 0.000000 0.200000 -0.328294
v -0.141421 0.141421 -0.328294
v -0.200000 -0.000000 -0.328294
v -0.141421 -0.141421 -0.328294
v 0.000000 -0.200000 -0.328294
v 0.141421 -0.141421 -0.328294
v 0.200000 0.000000 -0.328294
v 0.141421 0.141421 -0.328294
v 0.000000 0.200000 -0.290106
v -0.141421 0.141421 -0.290106
v -0.200000 -0.000000 -0.290106
v -0.141421 -0.141421 -0.290105
v 0.000000 -0.200000 -0.290105
v 0.141421 -0.141421 -0.290105
v 0.200000 0.000000 -0.290105
v 0.141421 0.141421 -0.290105
v 0.000000 0.137358 -0.290105
v -0.097127 0.097127 -0.290106
v -0.137358 -0.000000 -0.290106
v -0.097127 -0.097127 -0.290105
v 0.000000 -0.137358 -0.290105
v 0.097127 -0.097127 -0.290105
v 0.137358 0.000000 -0.290105
v 0.097127 0.097127 -0.290105
v 0.000000 0.137358 -0.235837
v -0.097127 0.097127 -0.235837
v -0.137358 0.000000 -0.235837
v -0.097127 -0.097127 -0.235837
v 0.000000 -0.137358 -0.235837
v 0.097127 -0.097127 -0.235837
v 0.137358 0.000000 -0.235837
v 0.097127 0.097127 -0.235837
v 0.000000 0.207232 -0.235837
v -0.146535 0.146535 -0.235837
v -0.207232 -0.000000 -0.235837
v -0.146535 -0.146535 -0.235837
v 0.000000 -0.207232 -0.235837
v 0.146535 -0.146535 -0.235837
v 0.207232 0.000000 -0.235837
v 0.146535 0.146535 -0.235837
v -0.000000 0.207232 0.294787
v -0.146535 0.146535 0.294787
v -0.207232 0.000000 0.294787
v -0.146535 -0.146535 0.294787
v -0.000000 -0.207232 0.294787
v 0.146535 -0.146535 0.294787
v 0.207232 0.000000 0.294787
v 0.146535 0.146535 0.294787
v -0.000000 0.149497 0.417394
v -0.105710 0.105710 0.417394
v -0.149497 0.000000 0.417394
v -0.105710 -0.105710 0.417394
v -0.000000 -0.149497 0.417394
v 0.105710 -0.105710 0.417394
v 0.149497 0.000000 0.417394
v 0.105710 0.105710 0.417394
v -0.000000 0.044692 0.521910
v -0.031602 0.031602 0.521910
v -0.044692 0.000000 0.521910
v -0.031602 -0.031602 0.521910
v -0.000000 -0.044692 0.521910
v 0.031602 -0.031602 0.521910
v 0.044692 0.000000 0.521910
v 0.031602 0.031602 0.521910
v -0.000000 0.015587 0.543719
v -0.011022 0.011022 0.543719
v -0.015587 0.000000 0.543719
v -0.011022 -0.011021 0.543719
v -0.000000 -0.015587 0.543719
v 0.011021 -0.011021 0.543719
v 0.015587 0.000000 0.543719
v 0.011021 0.011022 0.543719
v -0.000000 0.207232 0.068061
v -0.000000 0.207232 -0.009111
v 0.146535 0.146535 -0.009111
v 0.146535 0.146535 0.068061
v 0.207232 0.000000 -0.009111
v 0.207232 0.000000 0.068061
v 0.146535 -0.146535 -0.009111
v 0.146535 -0.146535 0.068061
v -0.000000 -0.207232 -0.009111
v -0.000000 -0.207232 0.068061
v -0.146535 -0.146535 -0.009111
v -0.146535 -0.146535 0.068061
v -0.207232 0.000000 -0.009111
v -0.207232 0.000000 0.068061
v -0.146535 0.146535 -0.009111
v -0.146535 0.146535 0.068061
v -0.000000 0.156785 0.052762
v -0.000000 0.156785 0.006188
v 0.110864 0.110864 0.006188
v 0.110864 0.110864 0.052762
v 0.156785 0.000000 0.006188
v 0.156785 0.000000 0.052762
v 0.110864 -0.110864 0.006188
v 0.110864 -0.110864 0.052762
v -0.000000 -0.156785 0.006188
v -0.000000 -0.156785 0.052762
v -0.110864 -0.110864 0.006188
v -0.110864 -0.110864 0.052762
v -0.156785 0.000000 0.006188
v -0.156785 0.000000 0.052762
v -0.110864 0.110864 0.006188
v -0.110864 0.110864 0.052762
vt 0.901441 0.858974
vt 0.891105 0.834958
vt 0.969521 0.774065
vt 0.987047 0.797130
vt 0.616723 0.830915
vt 0.602360 0.853365
vt 0.516671 0.796007
vt 0.526734 0.773346
vt 0.428892 0.778891
vt 0.429509 0.753602
vt 0.342878 0.799141
vt 0.332541 0.775124
vt 0.264461 0.860034
vt 0.246936 0.836969
vt 0.617260 0.803184
vt 0.631622 0.780734
vt 0.717311 0.838092
vt 0.707248 0.860752
vt 0.805091 0.855207
vt 0.804473 0.880497
vt 0.874100 0.800594
vt 0.930737 0.753602
vt 0.561511 0.880497
vt 0.500592 0.834221
vt 0.429824 0.818652
vt 0.359882 0.833504
vt 0.303246 0.880497
vt 0.672471 0.753602
vt 0.733390 0.799878
vt 0.804159 0.815447
vt 0.402120 0.109105
vt 0.402120 0.064991
vt 0.487577 0.064991
vt 0.487577 0.109105
vt 0.830061 0.064991
vt 0.830061 0.109105
vt 0.744604 0.109105
vt 0.744604 0.064991
vt 0.659147 0.109105
vt 0.659147 0.064991
vt 0.573690 0.109105
vt 0.573690 0.064991
vt 0.488233 0.109105
vt 0.488233 0.064991
vt 0.145748 0.109105
vt 0.145748 0.064991
vt 0.231205 0.064991
vt 0.231205 0.109105
vt 0.316663 0.064991
vt 0.316663 0.109105
vt 0.274106 0.719342
vt 0.274106 0.671759
vt 0.379921 0.671759
vt 0.379921 0.719342
vt 0.801924 0.490964
vt 0.801924 0.538548
vt 0.715626 0.538548
vt 0.715626 0.490964
vt 0.632528 0.538548
vt 0.632528 0.490964
vt 0.542456 0.538548
vt 0.542456 0.490964
vt 0.436641 0.538548
vt 0.436641 0.490964
vt 0.014638 0.719342
vt 0.014638 0.671759
vt 0.100936 0.671759
vt 0.100936 0.719342
vt 0.184034 0.671759
vt 0.184034 0.719342
vt 0.513222 0.273082
vt 0.556408 0.351075
vt 0.501630 0.403271
vt 0.441274 0.297541
vt 0.373588 0.148851
vt 0.440902 0.260103
vt 0.361743 0.286596
vt 0.317259 0.205129
vt 0.304916 0.315326
vt 0.264497 0.242117
vt 0.254269 0.351074
vt 0.211082 0.273082
vt 0.199490 0.403271
vt 0.139134 0.297540
vt 0.675728 0.148851
vt 0.743042 0.260103
vt 0.663883 0.286596
vt 0.619399 0.205129
vt 0.607055 0.315326
vt 0.566636 0.242117
vt 0.595284 0.392468
vt 0.566004 0.440555
vt 0.440902 0.344276
vt 0.377882 0.344695
vt 0.330932 0.362016
vt 0.293144 0.392468
vt 0.263864 0.440555
vt 0.743042 0.344276
vt 0.680022 0.344695
vt 0.633072 0.362016
vt 0.653314 0.434601
vt 0.647236 0.452013
vt 0.400187 0.425535
vt 0.381609 0.419590
vt 0.364363 0.423262
vt 0.351174 0.434601
vt 0.345096 0.452013
vt 0.702326 0.425535
vt 0.683749 0.419590
vt 0.666503 0.423262
vt 0.670062 0.445389
vt 0.668014 0.451889
vt 0.386391 0.442681
vt 0.379909 0.440024
vt 0.373151 0.441066
vt 0.367922 0.445389
vt 0.365874 0.451890
vt 0.688531 0.442681
vt 0.682049 0.440024
vt 0.675291 0.441066
vt 0.836012 0.462860
vt 0.830394 0.476424
vt 0.822449 0.476424
vt 0.830394 0.457242
vt 0.836012 0.470806
vt 0.816831 0.470806
vt 0.822449 0.457242
vt 0.816831 0.462860
vt 0.184034 0.511524
vt 0.274106 0.511524
vt 0.436641 0.698782
vt 0.542456 0.698782
vt 0.542456 0.736148
vt 0.436641 0.736148
vt 0.100936 0.511524
vt 0.632528 0.698782
vt 0.632528 0.736148
vt 0.014638 0.511524
vt 0.715626 0.698782
vt 0.715626 0.736148
vt 0.801924 0.698782
vt 0.801924 0.736148
vt 0.504296 0.252025
vt 0.554348 0.222070
vt 0.379921 0.511524
vt 0.274106 0.474158
vt 0.379921 0.474158
vt 0.603045 0.185516
vt 0.646890 0.136366
vt 0.679390 0.061425
vt 0.679390 0.019954
vt 0.786241 0.019954
vt 0.786241 0.061425
vt 0.572538 0.061425
vt 0.572538 0.019954
vt 0.465687 0.061425
vt 0.465687 0.019954
vt 0.144414 0.019954
vt 0.144414 0.061425
vt 0.037562 0.061425
vt 0.037562 0.019954
vt 0.251265 0.019954
vt 0.251265 0.061425
vt 0.358117 0.019954
vt 0.358117 0.061425
vt 0.464968 0.019954
vt 0.464968 0.061425
vt 0.893093 0.019954
vt 0.893093 0.061425
vt 0.014638 0.474158
vt 0.100936 0.474158
vt 0.443713 0.269900
vt 0.184034 0.474158
vt 0.300905 0.185516
vt 0.344751 0.136366
vt 0.252209 0.222069
vt 0.202156 0.252024
vt 0.141574 0.269899
vt 0.072358 0.999731
vt 0.246398 0.927642
vt 0.174309 0.999731
vt 0.000269 0.825691
vt 0.072358 0.753602
vt 0.174309 0.753602
vt 0.246398 0.825691
vt 0.000269 0.927642
vn 0.000000 0.776400 -0.630200
vn 0.000000 0.776400 0.630200
vn 0.549000 0.549000 0.630200
vn 0.549000 0.549000 -0.630200
vn 0.776400 0.000000 0.630200
vn 0.776400 0.000000 -0.630200
vn 0.549000 -0.549000 0.630200
vn 0.549000 -0.549000 -0.630200
vn 0.000000 -0.776400 0.630200
vn 0.000000 -0.776400 -0.630200
vn -0.549000 -0.549000 0.630200
vn -0.549000 -0.549000 -0.630200
vn -0.776400 0.000000 0.630200
vn -0.776400 0.000000 -0.630200
vn -0.549000 0.549000 0.630200
vn -0.549000 0.549000 -0.630200
vn 0.000000 0.594300 0.804200
vn 0.420300 0.420300 0.804200
vn 0.594300 0.000000 0.804200
vn 0.420300 -0.420300 0.804200
vn 0.000000 -0.594300 0.804200
vn -0.420300 -0.420300 0.804200
vn -0.594300 0.000000 0.804200
vn -0.420300 0.420300 0.804200
vn 0.000000 0.594300 -0.804200
vn 0.420300 0.420300 -0.804200
vn 0.594300 0.000000 -0.804200
vn 0.420300 -0.420300 -0.804200
vn 0.000000 -0.594300 -0.804200
vn -0.420300 -0.420300 -0.804200
vn -0.594300 0.000000 -0.804200
vn -0.420300 0.420300 -0.804200
vn 0.000000 0.845100 -0.534700
vn 0.000000 0.978200 0.207700
vn 0.691700 0.691700 0.207700
vn 0.597500 0.597500 -0.534700
vn 0.978200 0.000000 0.207700
vn 0.845100 0.000000 -0.534700
vn 0.691700 -0.691700 0.207700
vn 0.597500 -0.597500 -0.534700
vn 0.000000 -0.978200 0.207700
vn 0.000000 -0.845100 -0.534700
vn -0.691700 -0.691700 0.207700
vn -0.597500 -0.597500 -0.534700
vn -0.978200 0.000000 0.207700
vn -0.845100 0.000000 -0.534700
vn -0.691700 0.691700 0.207700
vn -0.597500 0.597500 -0.534700
vn 0.000000 0.830800 0.556500
vn 0.587500 0.587500 0.556500
vn 0.830800 0.000000 0.556500
vn 0.587500 -0.587500 0.556500
vn 0.000000 -0.830800 0.556500
vn -0.587500 -0.587500 0.556500
vn -0.830800 0.000000 0.556500
vn -0.587500 0.587500 0.556500
vn 0.000000 0.664200 0.747500
vn 0.469700 0.469700 0.747500
vn 0.664200 0.000000 0.747500
vn 0.469700 -0.469700 0.747500
vn 0.000000 -0.664200 0.747500
vn -0.469700 -0.469700 0.747500
vn -0.664200 0.000000 0.747500
vn -0.469700 0.469700 0.747500
vn 0.000000 0.383200 0.923600
vn 0.271000 0.271000 0.923600
vn 0.383200 0.000000 0.923600
vn 0.271000 -0.271000 0.923600
vn 0.000000 -0.383200 0.923600
vn -0.271000 -0.271000 0.923600
vn -0.383200 0.000000 0.923600
vn -0.271000 0.271000 0.923600
vn -0.597500 0.597500 0.534700
vn 0.000000 0.845100 0.534700
vn -0.597500 -0.597500 0.534700
vn 0.000000 -0.845100 0.534700
vn 0.000000 -0.736300 0.676600
vn -0.520600 -0.520600 0.676600
vn -0.845100 0.000000 0.534700
vn 0.597500 -0.597500 0.534700
vn 0.520600 -0.520600 0.676600
vn 0.845100 0.000000 0.534700
vn 0.736300 0.000000 0.676600
vn 0.597500 0.597500 0.534700
vn 0.520600 0.520600 0.676600
vn 0.000000 0.736300 -0.676600
vn -0.520600 0.520600 -0.676600
vn 0.000000 0.736300 0.676600
vn -0.736300 0.000000 -0.676600
vn -0.520600 -0.520600 -0.676600
vn -0.520600 0.520600 0.676600
vn -0.736300 0.000000 0.676600
vn 0.000000 -0.736300 -0.676600
vn 0.520600 -0.520600 -0.676600
vn 0.736300 0.000000 -0.676600
vn 0.520600 0.520600 -0.676600
usemtl Material.001
s 1
f 1/1/1 9/2/2 16/3/3 8/4/4
f 8/5/4 16/6/3 15/7/5 7/8/6
f 7/8/6 15/7/5 14/9/7 6/10/8
f 6/10/8 14/9/7 13/11/9 5/12/10
f 5/12/10 13/11/9 12/13/11 4/14/12
f 4/15/12 12/16/11 11/17/13 3/18/14
f 3/18/14 11/17/13 10/19/15 2/20/16
f 2/20/16 10/19/15 9/2/2 1/1/1
f 9/2/2 17/21/17 24/22/18 16/3/3
f 16/6/3 24/23/18 23/24/19 15/7/5
f 15/7/5 23/24/19 22/25/20 14/9/7
f 14/9/7 22/25/20 21/26/21 13/11/9
f 13/11/9 21/26/21 20/27/22 12/13/11
f 12/16/11 20/28/22 19/29/23 11/17/13
f 11/17/13 19/29/23 18/30/24 10/19/15
f 10/19/15 18/30/24 17/21/17 9/2/2
f 17/31/17 25/32/25 32/33/26 24/34/18
f 24/35/18 32/36/26 31/37/27 23/38/19
f 23/38/19 31/37/27 30/39/28 22/40/20
f 22/40/20 30/39/28 29/41/29 21/42/21
f 21/42/21 29/41/29 28/43/30 20/44/22
f 20/45/22 28/46/30 27/47/31 19/48/23
f 19/48/23 27/47/31 26/49/32 18/50/24
f 18/50/24 26/49/32 25/32/25 17/31/17
f 25/51/25 33/52/1 40/53/4 32/54/26
f 32/55/26 40/56/4 39/57/6 31/58/27
f 31/58/27 39/57/6 38/59/8 30/60/28
f 30/60/28 38/59/8 37/61/10 29/62/29
f 29/62/29 37/61/10 36/63/12 28/64/30
f 28/65/30 36/66/12 35/67/14 27/68/31
f 27/68/31 35/67/14 34/69/16 26/70/32
f 26/70/32 34/69/16 33/52/1 25/51/25
f 73/71/33 41/72/34 48/73/35 76/74/36
f 76/75/36 48/76/35 47/77/37 78/78/38
f 78/78/38 47/77/37 46/79/39 80/80/40
f 80/80/40 46/79/39 45/81/41 82/82/42
f 82/82/42 45/81/41 44/83/43 84/84/44
f 84/85/44 44/86/43 43/87/45 86/88/46
f 86/88/46 43/87/45 42/89/47 88/90/48
f 88/90/48 42/89/47 41/72/34 73/71/33
f 41/72/34 49/91/49 56/92/50 48/73/35
f 48/76/35 56/93/50 55/94/51 47/77/37
f 47/77/37 55/94/51 54/95/52 46/79/39
f 46/79/39 54/95/52 53/96/53 45/81/41
f 45/81/41 53/96/53 52/97/54 44/83/43
f 44/86/43 52/98/54 51/99/55 43/87/45
f 43/87/45 51/99/55 50/100/56 42/89/47
f 42/89/47 50/100/56 49/91/49 41/72/34
f 49/91/49 57/101/57 64/102/58 56/92/50
f 56/93/50 64/103/58 63/104/59 55/94/51
f 55/94/51 63/104/59 62/105/60 54/95/52
f 54/95/52 62/105/60 61/106/61 53/96/53
f 53/96/53 61/106/61 60/107/62 52/97/54
f 52/98/54 60/108/62 59/109/63 51/99/55
f 51/99/55 59/109/63 58/110/64 50/100/56
f 50/100/56 58/110/64 57/101/57 49/91/49
f 57/101/57 65/111/65 72/112/66 64/102/58
f 64/103/58 72/113/66 71/114/67 63/104/59
f 63/104/59 71/114/67 70/115/68 62/105/60
f 62/105/60 70/115/68 69/116/69 61/106/61
f 61/106/61 69/116/69 68/117/70 60/107/62
f 60/108/62 68/118/70 67/119/71 59/109/63
f 59/109/63 67/119/71 66/120/72 58/110/64
f 58/110/64 66/120/72 65/111/65 57/101/57
f 70/121/68 72/122/66 65/123/65 69/124/69
f 71/125/67 72/122/66 70/121/68
f 66/126/72 68/127/70 69/124/69 65/123/65
f 67/128/71 68/127/70 66/126/72
f 34/69/16 87/129/73 74/130/74 33/52/1
f 83/131/75 81/132/76 97/133/77 99/134/78
f 35/67/14 85/135/79 87/129/73 34/69/16
f 81/132/76 79/136/80 95/137/81 97/133/77
f 36/66/12 83/138/75 85/135/79 35/67/14
f 79/136/80 77/139/82 93/140/83 95/137/81
f 37/61/10 81/132/76 83/131/75 36/63/12
f 77/139/82 75/141/84 91/142/85 93/140/83
f 38/59/8 79/136/80 81/132/76 37/61/10
f 88/90/48 73/71/33 89/143/86 104/144/87
f 39/57/6 77/139/82 79/136/80 38/59/8
f 75/145/84 74/130/74 90/146/88 91/147/85
f 40/56/4 75/141/84 77/139/82 39/57/6
f 86/88/46 88/90/48 104/144/87 102/148/89
f 33/52/1 74/130/74 75/145/84 40/53/4
f 84/85/44 86/88/46 102/148/89 100/149/90
f 103/150/91 104/151/87 89/152/86 90/153/88
f 101/154/92 102/155/89 104/151/87 103/150/91
f 99/156/78 100/157/90 102/155/89 101/154/92
f 97/158/77 98/159/93 100/160/90 99/161/78
f 95/162/81 96/163/94 98/159/93 97/158/77
f 93/164/83 94/165/95 96/163/94 95/162/81
f 91/166/85 92/167/96 94/165/95 93/164/83
f 90/153/88 89/152/86 92/168/96 91/169/85
f 85/135/79 83/138/75 99/170/78 101/171/92
f 73/71/33 76/74/36 92/172/96 89/143/86
f 87/129/73 85/135/79 101/171/92 103/173/91
f 76/75/36 78/78/38 94/174/95 92/175/96
f 74/130/74 87/129/73 103/173/91 90/146/88
f 78/78/38 80/80/40 96/176/94 94/174/95
f 80/80/40 82/82/42 98/177/93 96/176/94
f 82/82/42 84/84/44 100/178/90 98/177/93
f 4/179/12 6/180/8 5/181/10
f 2/182/16 1/183/1 8/184/4 7/185/6 3/186/14
f 3/186/14 7/185/6 6/180/8 4/179/12
l 2 8
